<svg width="48" height="34" viewBox="0 0 48 34" fill="none" xmlns="http://www.w3.org/2000/svg">
<path d="M42.0551 4.66971C38.7523 2.02746 34.7891 0.706406 30.6055 0.486206L29.945 1.14681C33.688 2.02746 36.9909 3.78891 40.0734 6.21096C36.3303 4.22931 32.1468 2.90826 27.7431 2.46786C26.422 2.24766 25.3211 2.24766 24 2.24766C22.6789 2.24766 21.578 2.24766 20.2569 2.46786C15.8532 2.90826 11.6697 4.22931 7.9266 6.21096C11.0091 3.78891 14.3119 2.02746 18.055 1.14681L17.3945 0.486206C13.2109 0.706406 9.24765 2.02746 5.94495 4.66971C2.20183 11.7157 0.220185 19.6423 0 27.7889C3.3027 31.312 7.9266 33.5138 12.7707 33.5138C12.7707 33.5138 14.3119 31.7524 15.4128 30.211C12.5505 29.5505 9.90825 28.0091 8.1468 25.5872C9.68805 26.4679 11.2293 27.3487 12.7707 28.0091C14.7523 28.8899 16.734 29.3303 18.7157 29.7707C20.4771 29.9908 22.2386 30.211 24 30.211C25.7614 30.211 27.5229 29.9908 29.2843 29.7707C31.266 29.3303 33.2477 28.8899 35.2293 28.0091C36.7707 27.3487 38.312 26.4679 39.8532 25.5872C38.0918 28.0091 35.4495 29.5505 32.5872 30.211C33.688 31.7524 35.2293 33.5138 35.2293 33.5138C40.0734 33.5138 44.6973 31.312 48 27.7889C47.7798 19.6423 45.7982 11.7157 42.0551 4.66971ZM16.734 23.8256C14.5322 23.8256 12.5505 21.844 12.5505 19.4221C12.5505 17 14.5322 15.0184 16.734 15.0184C18.9359 15.0184 20.9175 17 20.9175 19.4221C20.9175 21.844 18.9359 23.8256 16.734 23.8256ZM31.266 23.8256C29.0641 23.8256 27.0825 21.844 27.0825 19.4221C27.0825 17 29.0641 15.0184 31.266 15.0184C33.4678 15.0184 35.4495 17 35.4495 19.4221C35.4495 21.844 33.4678 23.8256 31.266 23.8256Z" fill="white"/>
</svg>
