<svg width="48" height="48" viewBox="0 0 48 48" fill="none" xmlns="http://www.w3.org/2000/svg">
<g clip-path="url(#clip0_177_460)">
<mask id="mask0_177_460" style="mask-type:luminance" maskUnits="userSpaceOnUse" x="0" y="0" width="48" height="48">
<path d="M0.0449219 48V0.0300293H47.9999V48H0.0449219Z" fill="white"/>
</mask>
<g mask="url(#mask0_177_460)">
<path fill-rule="evenodd" clip-rule="evenodd" d="M48 24C48 37.2547 37.2547 48 24 48C10.7452 48 0 37.2547 0 24C0 10.7452 10.7452 0 24 0C37.2547 0 48 10.7452 48 24Z" fill="#222222"/>
</g>
<path fill-rule="evenodd" clip-rule="evenodd" d="M25.125 43.5H22.875V43.4618C13.8307 42.903 6.597 35.6693 6.03825 26.625H6V24.375H6.03825C6.597 15.3307 13.8307 8.097 22.875 7.53825V7.5H25.125V7.53825C34.1693 8.097 41.403 15.3307 41.9618 24.375H42V26.625H41.9618C41.403 35.6693 34.1693 42.903 25.125 43.4618V43.5ZM25.125 33.522V41.049C26.5853 40.5735 28.0252 39.2108 29.1982 37.125C29.6978 36.2377 30.123 35.2537 30.4883 34.2083C28.7258 33.8126 26.9303 33.5828 25.125 33.522ZM22.875 33.5212C21.0694 33.5815 19.2733 33.8103 17.5103 34.2045C17.8755 35.2515 18.3022 36.237 18.8018 37.125C19.9748 39.2108 21.4148 40.5735 22.875 41.049V33.5212ZM32.67 34.8015C31.9658 36.8708 31.0327 38.6655 29.9347 40.08C32.1226 39.181 34.0807 37.8024 35.6648 36.0457C34.702 35.5503 33.7004 35.1342 32.67 34.8015ZM15.3285 34.797C14.2968 35.1289 13.294 35.5445 12.33 36.0398C13.9146 37.7995 15.8747 39.1803 18.0653 40.08C16.9665 38.664 16.0335 36.8685 15.3285 34.797ZM34.1033 26.625C34.0386 28.6548 33.7672 30.6727 33.2932 32.6475C34.6582 33.0885 35.9378 33.6203 37.0868 34.2495C38.6064 31.9792 39.5049 29.3505 39.693 26.625H34.1033ZM8.307 26.625C8.49483 29.3477 9.39178 31.974 10.9088 34.2428C12.0592 33.6143 13.3395 33.0832 14.7052 32.643C14.2322 30.6696 13.9613 28.6532 13.8967 26.625H8.307ZM25.125 26.625V31.2727C27.207 31.344 29.2268 31.6088 31.1235 32.0505C31.5323 30.3525 31.7745 28.5233 31.845 26.625H25.125ZM16.155 26.625C16.2255 28.5217 16.467 30.3495 16.875 32.0475C18.8452 31.5953 20.8546 31.3356 22.875 31.272V26.625H16.155ZM37.1385 16.8353C35.9828 17.4728 34.6965 18.0127 33.3202 18.459C33.7597 20.2942 34.0305 22.287 34.1033 24.375H39.693C39.5062 21.6835 38.6262 19.086 37.1385 16.8353ZM31.152 19.0568C29.1732 19.5131 27.1547 19.7753 25.125 19.8397V24.375H31.845C31.776 22.5173 31.545 20.724 31.152 19.0568ZM16.848 19.0568C16.455 20.7248 16.224 22.5173 16.155 24.375H22.875V19.8397C20.8453 19.7754 18.8268 19.5131 16.848 19.0568ZM10.8608 16.836C9.37365 19.0867 8.49391 21.6838 8.307 24.375H13.8967C13.9695 22.287 14.2402 20.2942 14.6798 18.459C13.3035 18.0127 12.0173 17.4735 10.8608 16.836ZM25.125 9.951V17.5905C26.9422 17.5293 28.7497 17.2976 30.5235 16.8983C30.1515 15.8123 29.7143 14.7915 29.1982 13.875C28.0252 11.7892 26.5853 10.4265 25.125 9.951ZM22.875 9.951C21.4148 10.4265 19.9748 11.7892 18.8018 13.875C18.2858 14.7915 17.8485 15.8123 17.4765 16.8983C19.179 17.2867 20.9963 17.523 22.875 17.5905V9.951ZM29.9347 10.92C31.0507 12.3585 31.995 14.19 32.7038 16.3035C33.7486 15.9654 34.7636 15.5412 35.7383 15.0353C34.1419 13.2399 32.1571 11.8325 29.9347 10.92ZM18.0653 10.92C15.843 11.8323 13.8584 13.2398 12.2625 15.0353C13.2369 15.5411 14.2516 15.965 15.2963 16.3027C16.005 14.19 16.9493 12.3585 18.0653 10.92Z" fill="#222222"/>
<path fill-rule="evenodd" clip-rule="evenodd" d="M24 6C14.0588 6 6 14.0588 6 24C6 33.9412 14.0588 42 24 42C33.9412 42 42 33.9412 42 24C42 14.0588 33.9412 6 24 6ZM24 8.25C32.6842 8.25 39.75 15.3158 39.75 24C39.75 32.6842 32.6842 39.75 24 39.75C15.3158 39.75 8.25 32.6842 8.25 24C8.25 15.3158 15.3158 8.25 24 8.25Z" fill="#FFFFFE"/>
<path fill-rule="evenodd" clip-rule="evenodd" d="M24 6C18.408 6 13.875 14.0588 13.875 24C13.875 33.9412 18.408 42 24 42C29.592 42 34.125 33.9412 34.125 24C34.125 14.0588 29.592 6 24 6ZM24 8.25C25.8293 8.25 27.7238 9.75375 29.1982 12.375C30.9247 15.444 31.875 19.572 31.875 24C31.875 28.428 30.9247 32.556 29.1982 35.625C27.7238 38.2463 25.8293 39.75 24 39.75C22.1707 39.75 20.2763 38.2463 18.8018 35.625C17.0753 32.556 16.125 28.428 16.125 24C16.125 19.572 17.0753 15.444 18.8018 12.375C20.2763 9.75375 22.1707 8.25 24 8.25Z" fill="#FFFFFE"/>
<path fill-rule="evenodd" clip-rule="evenodd" d="M22.875 42H25.125V6H22.875V42Z" fill="#FFFFFE"/>
<path fill-rule="evenodd" clip-rule="evenodd" d="M24 18.3751C18.4312 18.3751 13.1648 16.9793 9.5505 14.5456L10.8075 12.6788C14.0595 14.8688 18.8678 16.1251 24 16.1251C29.127 16.1251 33.933 14.8711 37.185 12.6841L38.4405 14.5516C34.827 16.9816 29.5635 18.3751 24 18.3751ZM37.1842 35.4331C33.9322 33.2431 29.124 31.9868 23.9918 31.9868C18.864 31.9868 14.0588 33.2416 10.8068 35.4286L9.55125 33.5611C13.1647 31.1311 18.4283 29.7368 23.9918 29.7368C29.5605 29.7368 34.8278 31.1333 38.4412 33.5671L37.1842 35.4331ZM6 25.1251H42V22.8751H6V25.1251Z" fill="#FFFFFE"/>
</g>
<defs>
<clipPath id="clip0_177_460">
<rect width="48" height="48" fill="white"/>
</clipPath>
</defs>
</svg>
