<svg width="40" height="33" viewBox="0 0 40 33" fill="none" xmlns="http://www.w3.org/2000/svg">
<path d="M3.1811 14.2064C13.65 9.54951 20.6309 6.47931 24.1239 4.99581C34.0968 0.760558 36.1692 0.0248091 37.52 0.000359063C37.817 -0.00474094 38.4812 0.0704088 38.9115 0.426809C39.2748 0.727859 39.3747 1.13451 39.4226 1.41981C39.4704 1.70526 39.53 2.35536 39.4826 2.86326C38.9421 8.66106 36.6038 22.7309 35.414 29.2246C34.9106 31.9723 33.9194 32.8936 32.9598 32.9837C30.8744 33.1796 29.2907 31.5766 27.2709 30.2246C24.1101 28.1093 22.3247 26.7923 19.2566 24.7282C15.711 22.3426 18.0095 21.0314 20.0301 18.8885C20.5589 18.3278 29.7474 9.79431 29.9253 9.02031C29.9475 8.92341 29.9682 8.56251 29.7582 8.37201C29.5482 8.18151 29.2383 8.24661 29.0147 8.29836C28.6977 8.37186 23.6484 11.7794 13.8669 18.521C12.4337 19.5259 11.1356 20.0153 9.9725 19.9897C8.6903 19.9615 6.22385 19.2496 4.39025 18.641C2.1413 17.8945 0.353807 17.5 0.509447 16.2323C0.590522 15.572 1.48104 14.8967 3.1811 14.2064Z" fill="white"/>
</svg>
