<svg width="34" height="40" viewBox="0 0 34 40" fill="none" xmlns="http://www.w3.org/2000/svg">
<path d="M14.0359 21.3106C13.076 21.2865 12.1158 21.3408 11.1648 21.473C9.7849 21.7827 8.5749 22.6048 7.78043 23.7723C6.98596 24.9398 6.66655 26.3652 6.88707 27.7591C7.09486 29.1674 7.83114 30.4443 8.94688 31.3314C10.0626 32.2186 11.4745 32.6496 12.8968 32.5374C14.298 32.4409 15.6109 31.8195 16.5724 30.7979C17.5338 29.7762 18.0727 28.4298 18.0811 27.0284C18.0811 18.4923 18.0811 9.96782 18.0811 1.43174V0.5271H24.7418C25.1602 6.17529 28.4847 9.05158 33.9248 9.80545V16.3119C30.6674 16.2715 27.5001 15.2397 24.8464 13.3544C24.8464 13.656 24.8464 13.8763 24.8464 14.0967C24.8464 18.2835 24.8464 22.4588 24.8464 26.6341C24.9338 29.2232 24.1891 31.7724 22.7209 33.9092C21.2528 36.0459 19.1382 37.6582 16.6862 38.5103C14.4563 39.421 11.9978 39.6178 9.65082 39.0734C7.30387 38.529 5.18448 37.2704 3.58581 35.4717C1.87173 33.8172 0.709184 31.6767 0.255869 29.3405C-0.197446 27.0044 0.0804076 24.5856 1.05174 22.4124C2.03679 19.9061 3.82497 17.7953 6.13772 16.4086C8.45046 15.022 11.1579 14.4375 13.8383 14.7462L14.0824 14.8042L14.0359 21.3106Z" fill="white"/>
</svg>
