<svg width="36" height="36" viewBox="0 0 36 36" fill="none" xmlns="http://www.w3.org/2000/svg">
<path fill-rule="evenodd" clip-rule="evenodd" d="M35.4142 3.41422C36.1952 2.63316 36.1952 1.36684 35.4142 0.58578C34.6332 -0.19526 33.3668 -0.19526 32.5858 0.58578L20.696 12.4756L12.1468 0.8173C11.7701 0.30354 11.1711 0 10.534 0H2C1.24634 0 0.55666 0.42368 0.216 1.09596C-0.12468 1.76824 -0.0585 2.57494 0.38718 3.1827L12.9108 20.2608L0.58578 32.5858C-0.19526 33.3668 -0.19526 34.6332 0.58578 35.4142C1.36684 36.1952 2.63316 36.1952 3.41422 35.4142L15.304 23.5244L23.8532 35.1828C24.23 35.6964 24.829 36 25.466 36H34C34.7536 36 35.4434 35.5764 35.784 34.904C36.1246 34.2318 36.0586 33.425 35.6128 32.8172L23.0892 15.7392L35.4142 3.41422ZM18.7406 16.573C18.8024 16.676 18.8742 16.7744 18.9562 16.8672L30.0532 32H26.4796L5.94676 4H9.52052L18.7406 16.573Z" fill="white"/>
</svg>
